<?xml version="1.0" encoding="UTF-8" standalone="no"?>
<!DOCTYPE svg PUBLIC "-//W3C//DTD SVG 1.1//EN"
 "http://www.w3.org/Graphics/SVG/1.1/DTD/svg11.dtd">
<!-- Generated by graphviz version 8.0.2 (20230410.1723)
 -->
<!-- Pages: 1 -->
<svg width="829pt" height="4536pt"
 viewBox="0.00 0.00 829.10 4535.91" xmlns="http://www.w3.org/2000/svg" xmlns:xlink="http://www.w3.org/1999/xlink">
<g id="graph0" class="graph" transform="scale(1 1) rotate(0) translate(4 4531.91)">
<polygon fill="white" stroke="none" points="-4,4 -4,-4531.91 825.1,-4531.91 825.1,4 -4,4"/>
<!-- 0 -->
<g id="node1" class="node">
<title>0</title>
<ellipse fill="none" stroke="black" cx="438.1" cy="-4483.06" rx="44.69" ry="44.69"/>
<text text-anchor="middle" x="438.1" y="-4479.36" font-family="Times New Roman,serif" font-size="14.00">0: [&#45;1, &#45;1]</text>
</g>
<!-- 1 -->
<g id="node2" class="node">
<title>1</title>
<ellipse fill="none" stroke="black" cx="384.1" cy="-4339.12" rx="43.59" ry="43.59"/>
<text text-anchor="middle" x="384.1" y="-4335.42" font-family="Times New Roman,serif" font-size="14.00">1: [0, 26]</text>
</g>
<!-- 0&#45;&gt;1 -->
<g id="edge1" class="edge">
<title>0&#45;&gt;1</title>
<path fill="none" stroke="black" d="M422.48,-4441.01C416.44,-4425.14 409.48,-4406.83 403.15,-4390.2"/>
<polygon fill="black" stroke="black" points="406.13,-4389.21 399.31,-4381.1 399.59,-4391.69 406.13,-4389.21"/>
<text text-anchor="middle" x="419.6" y="-4409.01" font-family="Times New Roman,serif" font-size="14.00">L</text>
</g>
<!-- 20 -->
<g id="node3" class="node">
<title>20</title>
<ellipse fill="none" stroke="black" cx="205.1" cy="-4224.93" rx="48.19" ry="48.19"/>
<text text-anchor="middle" x="205.1" y="-4221.23" font-family="Times New Roman,serif" font-size="14.00">20: [1, 22]</text>
</g>
<!-- 0&#45;&gt;20 -->
<g id="edge2" class="edge">
<title>0&#45;&gt;20</title>
<path fill="none" stroke="black" d="M393.17,-4480.05C349.23,-4475.59 283.61,-4461.83 246.1,-4420.21 212.97,-4383.47 204.1,-4326.87 202.7,-4284.22"/>
<polygon fill="black" stroke="black" points="206.19,-4284.35 202.49,-4274.42 199.19,-4284.48 206.19,-4284.35"/>
<text text-anchor="middle" x="250.1" y="-4409.01" font-family="Times New Roman,serif" font-size="14.00">o</text>
</g>
<!-- 22 -->
<g id="node4" class="node">
<title>22</title>
<ellipse fill="none" stroke="black" cx="557.1" cy="-4005.64" rx="48.19" ry="48.19"/>
<text text-anchor="middle" x="557.1" y="-4001.94" font-family="Times New Roman,serif" font-size="14.00">22: [2, 23]</text>
</g>
<!-- 0&#45;&gt;22 -->
<g id="edge3" class="edge">
<title>0&#45;&gt;22</title>
<path fill="none" stroke="black" d="M475.28,-4457.75C487.75,-4447.66 500.42,-4434.87 508.1,-4420.21 568.3,-4305.29 568.18,-4148.28 562.72,-4064.65"/>
<polygon fill="black" stroke="black" points="566.16,-4064.56 561.96,-4054.84 559.17,-4065.06 566.16,-4064.56"/>
<text text-anchor="middle" x="553.6" y="-4335.42" font-family="Times New Roman,serif" font-size="14.00">r</text>
</g>
<!-- 36 -->
<g id="node5" class="node">
<title>36</title>
<ellipse fill="none" stroke="black" cx="48.1" cy="-2918.32" rx="48.19" ry="48.19"/>
<text text-anchor="middle" x="48.1" y="-2914.62" font-family="Times New Roman,serif" font-size="14.00">36: [3, 22]</text>
</g>
<!-- 0&#45;&gt;36 -->
<g id="edge4" class="edge">
<title>0&#45;&gt;36</title>
<path fill="none" stroke="black" d="M393.37,-4477.37C333.32,-4470.07 224.01,-4453.27 136.1,-4420.21 82.8,-4400.17 36.1,-4397.06 36.1,-4340.12 36.1,-4340.12 36.1,-4340.12 36.1,-3136.61 36.1,-3082.62 39.83,-3021.21 43.14,-2977.48"/>
<polygon fill="black" stroke="black" points="46.69,-2978 43.97,-2967.76 39.71,-2977.46 46.69,-2978"/>
<text text-anchor="middle" x="39.6" y="-3782.66" font-family="Times New Roman,serif" font-size="14.00">e</text>
</g>
<!-- 34 -->
<g id="node6" class="node">
<title>34</title>
<ellipse fill="none" stroke="black" cx="772.1" cy="-3137.61" rx="48.19" ry="48.19"/>
<text text-anchor="middle" x="772.1" y="-3133.91" font-family="Times New Roman,serif" font-size="14.00">34: [4, 16]</text>
</g>
<!-- 0&#45;&gt;34 -->
<g id="edge5" class="edge">
<title>0&#45;&gt;34</title>
<path fill="none" stroke="black" d="M483.07,-4482.93C557.2,-4481.86 705.38,-4468.82 791.1,-4387.21 807.44,-4371.65 810.1,-4362.69 810.1,-4340.12 810.1,-4340.12 810.1,-4340.12 810.1,-3351.34 810.1,-3297.56 798.18,-3237.3 787.69,-3194.69"/>
<polygon fill="black" stroke="black" points="790.9,-3194.09 785.07,-3185.25 784.11,-3195.8 790.9,-3194.09"/>
<text text-anchor="middle" x="815.6" y="-3892.3" font-family="Times New Roman,serif" font-size="14.00">m</text>
</g>
<!-- 31 -->
<g id="node7" class="node">
<title>31</title>
<ellipse fill="none" stroke="black" cx="679.1" cy="-3352.34" rx="43.59" ry="43.59"/>
<text text-anchor="middle" x="679.1" y="-3348.64" font-family="Times New Roman,serif" font-size="14.00">31: [5, 8]</text>
</g>
<!-- 0&#45;&gt;31 -->
<g id="edge6" class="edge">
<title>0&#45;&gt;31</title>
<path fill="none" stroke="black" d="M482.79,-4479.69C527.06,-4474.96 593.9,-4461 634.1,-4420.21 660.18,-4393.75 658.1,-4377.28 658.1,-4340.12 658.1,-4340.12 658.1,-4340.12 658.1,-3566.08 658.1,-3511.45 665.04,-3449.32 670.94,-3406.36"/>
<polygon fill="black" stroke="black" points="674.53,-3406.99 672.45,-3396.6 667.59,-3406.02 674.53,-3406.99"/>
<text text-anchor="middle" x="660.1" y="-4001.94" font-family="Times New Roman,serif" font-size="14.00"> </text>
</g>
<!-- 28 -->
<g id="node8" class="node">
<title>28</title>
<ellipse fill="none" stroke="black" cx="99.1" cy="-3567.08" rx="48.19" ry="48.19"/>
<text text-anchor="middle" x="99.1" y="-3563.38" font-family="Times New Roman,serif" font-size="14.00">28: [6, 19]</text>
</g>
<!-- 0&#45;&gt;28 -->
<g id="edge7" class="edge">
<title>0&#45;&gt;28</title>
<path fill="none" stroke="black" d="M393.4,-4478.46C338.59,-4472.57 244.09,-4457.5 172.1,-4420.21 124.55,-4395.59 82.1,-4393.67 82.1,-4340.12 82.1,-4340.12 82.1,-4340.12 82.1,-3785.36 82.1,-3731.12 87.43,-3669.49 92.12,-3625.76"/>
<polygon fill="black" stroke="black" points="95.68,-3626.36 93.29,-3616.04 88.72,-3625.6 95.68,-3626.36"/>
<text text-anchor="middle" x="84.1" y="-4111.59" font-family="Times New Roman,serif" font-size="14.00">i</text>
</g>
<!-- 8 -->
<g id="node9" class="node">
<title>8</title>
<ellipse fill="none" stroke="black" cx="436.1" cy="-2808.68" rx="43.59" ry="43.59"/>
<text text-anchor="middle" x="436.1" y="-2804.98" font-family="Times New Roman,serif" font-size="14.00">8: [7, 26]</text>
</g>
<!-- 0&#45;&gt;8 -->
<g id="edge8" class="edge">
<title>0&#45;&gt;8</title>
<path fill="none" stroke="black" d="M440.24,-4438.18C445.4,-4328.5 458.1,-4033.5 458.1,-3787.36 458.1,-3787.36 458.1,-3787.36 458.1,-3026.97 458.1,-2970.69 450.7,-2906.63 444.49,-2862.73"/>
<polygon fill="black" stroke="black" points="447.83,-2862.42 442.94,-2853.02 440.9,-2863.42 447.83,-2862.42"/>
<text text-anchor="middle" x="462.1" y="-3673.02" font-family="Times New Roman,serif" font-size="14.00">p</text>
</g>
<!-- 26 -->
<g id="node10" class="node">
<title>26</title>
<ellipse fill="none" stroke="black" cx="145.1" cy="-3786.36" rx="48.19" ry="48.19"/>
<text text-anchor="middle" x="145.1" y="-3782.66" font-family="Times New Roman,serif" font-size="14.00">26: [8, 17]</text>
</g>
<!-- 0&#45;&gt;26 -->
<g id="edge9" class="edge">
<title>0&#45;&gt;26</title>
<path fill="none" stroke="black" d="M393.28,-4480.3C311.2,-4474.42 145.1,-4449.07 145.1,-4340.12 145.1,-4340.12 145.1,-4340.12 145.1,-4004.64 145.1,-3950.74 145.1,-3889.32 145.1,-3845.56"/>
<polygon fill="black" stroke="black" points="148.6,-3845.83 145.1,-3835.83 141.6,-3845.83 148.6,-3845.83"/>
<text text-anchor="middle" x="148.6" y="-4221.23" font-family="Times New Roman,serif" font-size="14.00">s</text>
</g>
<!-- 10 -->
<g id="node11" class="node">
<title>10</title>
<ellipse fill="none" stroke="black" cx="436.1" cy="-2527.95" rx="48.19" ry="48.19"/>
<text text-anchor="middle" x="436.1" y="-2524.25" font-family="Times New Roman,serif" font-size="14.00">10: [9, 26]</text>
</g>
<!-- 0&#45;&gt;10 -->
<g id="edge10" class="edge">
<title>0&#45;&gt;10</title>
<path fill="none" stroke="black" d="M398.85,-4461.41C359.94,-4437.78 306.1,-4395.14 306.1,-4340.12 306.1,-4340.12 306.1,-4340.12 306.1,-2669.59 306.1,-2621.01 348.45,-2582.06 384.8,-2557.59"/>
<polygon fill="black" stroke="black" points="386.41,-2560.06 392.89,-2551.68 382.6,-2554.2 386.41,-2560.06"/>
<text text-anchor="middle" x="309.6" y="-3453.73" font-family="Times New Roman,serif" font-size="14.00">u</text>
</g>
<!-- 15 -->
<g id="node12" class="node">
<title>15</title>
<ellipse fill="none" stroke="black" cx="322.1" cy="-2066.88" rx="51.99" ry="51.99"/>
<text text-anchor="middle" x="322.1" y="-2063.18" font-family="Times New Roman,serif" font-size="14.00">15: [12, 26]</text>
</g>
<!-- 0&#45;&gt;15 -->
<g id="edge11" class="edge">
<title>0&#45;&gt;15</title>
<path fill="none" stroke="black" d="M395.85,-4467.02C362.56,-4452.48 319.02,-4426.78 302.1,-4387.21 282.06,-4340.37 294.96,-4323.89 292.1,-4273.02 246.6,-3466.19 246.1,-3263.46 246.1,-2455.35 246.1,-2455.35 246.1,-2455.35 246.1,-2220.87 246.1,-2183.27 264.74,-2145.39 283.55,-2116.72"/>
<polygon fill="black" stroke="black" points="286.92,-2118.99 289.64,-2108.76 281.13,-2115.06 286.92,-2118.99"/>
<text text-anchor="middle" x="253.1" y="-3133.91" font-family="Times New Roman,serif" font-size="14.00">d</text>
</g>
<!-- 18 -->
<g id="node13" class="node">
<title>18</title>
<ellipse fill="none" stroke="black" cx="439.1" cy="-1756.89" rx="51.99" ry="51.99"/>
<text text-anchor="middle" x="439.1" y="-1753.19" font-family="Times New Roman,serif" font-size="14.00">18: [14, 26]</text>
</g>
<!-- 0&#45;&gt;18 -->
<g id="edge12" class="edge">
<title>0&#45;&gt;18</title>
<path fill="none" stroke="black" d="M451.49,-4440.07C453.25,-4433.48 454.87,-4426.7 456.1,-4420.21 458.83,-4405.74 458.17,-4401.91 459.1,-4387.21 468.41,-4239.22 465.87,-4201.97 470.1,-4053.74 492.33,-3274.46 520.1,-3079.96 520.1,-2300.36 520.1,-2300.36 520.1,-2300.36 520.1,-1910.88 520.1,-1872.21 499.63,-1833.76 479.27,-1805.08"/>
<polygon fill="black" stroke="black" points="481.71,-1803.49 472.98,-1797.5 476.07,-1807.63 481.71,-1803.49"/>
<text text-anchor="middle" x="516.1" y="-2914.62" font-family="Times New Roman,serif" font-size="14.00">l</text>
</g>
<!-- 38 -->
<g id="node14" class="node">
<title>38</title>
<ellipse fill="none" stroke="black" cx="734.1" cy="-4339.12" rx="48.19" ry="48.19"/>
<text text-anchor="middle" x="734.1" y="-4335.42" font-family="Times New Roman,serif" font-size="14.00">38: [20, 5]</text>
</g>
<!-- 0&#45;&gt;38 -->
<g id="edge13" class="edge">
<title>0&#45;&gt;38</title>
<path fill="none" stroke="black" d="M482.97,-4478.79C532.82,-4473.31 613.95,-4458.75 672.1,-4420.21 684.13,-4412.24 694.82,-4401.15 703.79,-4389.75"/>
<polygon fill="black" stroke="black" points="707.13,-4392.13 710.31,-4382.03 701.52,-4387.94 707.13,-4392.13"/>
<text text-anchor="middle" x="690.1" y="-4409.01" font-family="Times New Roman,serif" font-size="14.00">t</text>
</g>
<!-- 32 -->
<g id="node15" class="node">
<title>32</title>
<ellipse fill="none" stroke="black" cx="620.1" cy="-516.97" rx="51.99" ry="51.99"/>
<text text-anchor="middle" x="620.1" y="-513.27" font-family="Times New Roman,serif" font-size="14.00">32: [22, 26]</text>
</g>
<!-- 0&#45;&gt;32 -->
<g id="edge14" class="edge">
<title>0&#45;&gt;32</title>
<path fill="none" stroke="black" d="M480.77,-4469.64C534.56,-4451.05 620.1,-4410.44 620.1,-4340.12 620.1,-4340.12 620.1,-4340.12 620.1,-670.96 620.1,-641.06 620.1,-607.88 620.1,-580.08"/>
<polygon fill="black" stroke="black" points="623.6,-580.31 620.1,-570.31 616.6,-580.31 623.6,-580.31"/>
<text text-anchor="middle" x="623.6" y="-2295.66" font-family="Times New Roman,serif" font-size="14.00">a</text>
</g>
<!-- 2 -->
<g id="node16" class="node">
<title>2</title>
<ellipse fill="none" stroke="black" cx="383.1" cy="-4115.29" rx="43.59" ry="43.59"/>
<text text-anchor="middle" x="383.1" y="-4111.59" font-family="Times New Roman,serif" font-size="14.00">2: [1, 26]</text>
</g>
<!-- 1&#45;&gt;2 -->
<g id="edge15" class="edge">
<title>1&#45;&gt;2</title>
<path fill="none" stroke="black" d="M383.9,-4295.08C383.74,-4259.42 383.51,-4208.54 383.34,-4170.17"/>
<polygon fill="black" stroke="black" points="386.83,-4170.18 383.29,-4160.2 379.83,-4170.22 386.83,-4170.18"/>
<text text-anchor="middle" x="388.1" y="-4221.23" font-family="Times New Roman,serif" font-size="14.00">o</text>
</g>
<!-- 21 -->
<g id="node30" class="node">
<title>21</title>
<ellipse fill="none" stroke="black" cx="407.1" cy="-1446.91" rx="51.99" ry="51.99"/>
<text text-anchor="middle" x="407.1" y="-1443.21" font-family="Times New Roman,serif" font-size="14.00">21: [16, 26]</text>
</g>
<!-- 20&#45;&gt;21 -->
<g id="edge34" class="edge">
<title>20&#45;&gt;21</title>
<path fill="none" stroke="black" d="M206.13,-4176.46C207,-4132.44 208.1,-4065.12 208.1,-4006.64 208.1,-4006.64 208.1,-4006.64 208.1,-1600.9 208.1,-1530.09 288.27,-1487.53 346.84,-1465.89"/>
<polygon fill="black" stroke="black" points="347.89,-1468.88 356.14,-1462.22 345.54,-1462.28 347.89,-1468.88"/>
<text text-anchor="middle" x="210.6" y="-2666.89" font-family="Times New Roman,serif" font-size="14.00">r</text>
</g>
<!-- 23 -->
<g id="node31" class="node">
<title>23</title>
<ellipse fill="none" stroke="black" cx="407.1" cy="-1291.92" rx="51.99" ry="51.99"/>
<text text-anchor="middle" x="407.1" y="-1288.22" font-family="Times New Roman,serif" font-size="14.00">23: [17, 26]</text>
</g>
<!-- 22&#45;&gt;23 -->
<g id="edge36" class="edge">
<title>22&#45;&gt;23</title>
<path fill="none" stroke="black" d="M557.44,-3957.17C557.73,-3913.15 558.1,-3845.83 558.1,-3787.36 558.1,-3787.36 558.1,-3787.36 558.1,-1445.91 558.1,-1389.76 505.94,-1346.77 462.93,-1320.86"/>
<polygon fill="black" stroke="black" points="465.03,-1317.45 454.63,-1315.43 461.5,-1323.5 465.03,-1317.45"/>
<text text-anchor="middle" x="560.1" y="-2524.25" font-family="Times New Roman,serif" font-size="14.00"> </text>
</g>
<!-- 37 -->
<g id="node39" class="node">
<title>37</title>
<ellipse fill="none" stroke="black" cx="77.1" cy="-52" rx="51.99" ry="51.99"/>
<text text-anchor="middle" x="77.1" y="-48.3" font-family="Times New Roman,serif" font-size="14.00">37: [25, 26]</text>
</g>
<!-- 36&#45;&gt;37 -->
<g id="edge50" class="edge">
<title>36&#45;&gt;37</title>
<path fill="none" stroke="black" d="M53.46,-2870.15C57.04,-2834.6 61.1,-2784.62 61.1,-2740.64 61.1,-2740.64 61.1,-2740.64 61.1,-205.99 61.1,-175.81 64.21,-142.46 67.7,-114.63"/>
<polygon fill="black" stroke="black" points="71.28,-115.22 69.1,-104.85 64.34,-114.32 71.28,-115.22"/>
<text text-anchor="middle" x="63.1" y="-1520.71" font-family="Times New Roman,serif" font-size="14.00">t</text>
</g>
<!-- 35 -->
<g id="node38" class="node">
<title>35</title>
<ellipse fill="none" stroke="black" cx="620.1" cy="-206.99" rx="51.99" ry="51.99"/>
<text text-anchor="middle" x="620.1" y="-203.29" font-family="Times New Roman,serif" font-size="14.00">35: [24, 26]</text>
</g>
<!-- 34&#45;&gt;35 -->
<g id="edge48" class="edge">
<title>34&#45;&gt;35</title>
<path fill="none" stroke="black" d="M755.59,-3091.94C741.02,-3048.48 722.1,-2980.29 722.1,-2919.32 722.1,-2919.32 722.1,-2919.32 722.1,-360.98 722.1,-317.79 693.61,-277.53 666.75,-249.15"/>
<polygon fill="black" stroke="black" points="669.73,-247.18 660.24,-242.47 664.73,-252.07 669.73,-247.18"/>
<text text-anchor="middle" x="725.6" y="-1675.7" font-family="Times New Roman,serif" font-size="14.00">e</text>
</g>
<!-- 31&#45;&gt;32 -->
<g id="edge45" class="edge">
<title>31&#45;&gt;32</title>
<path fill="none" stroke="black" d="M676.86,-3308.57C674.81,-3265.62 672.1,-3197.55 672.1,-3138.61 672.1,-3138.61 672.1,-3138.61 672.1,-670.96 672.1,-637.33 660.7,-601.65 648.57,-573.22"/>
<polygon fill="black" stroke="black" points="651.51,-572.21 644.27,-564.48 645.11,-575.04 651.51,-572.21"/>
<text text-anchor="middle" x="675.6" y="-1908.18" font-family="Times New Roman,serif" font-size="14.00">a</text>
</g>
<!-- 29 -->
<g id="node35" class="node">
<title>29</title>
<ellipse fill="none" stroke="black" cx="257.1" cy="-826.95" rx="51.99" ry="51.99"/>
<text text-anchor="middle" x="257.1" y="-823.25" font-family="Times New Roman,serif" font-size="14.00">29: [20, 26]</text>
</g>
<!-- 28&#45;&gt;29 -->
<g id="edge42" class="edge">
<title>28&#45;&gt;29</title>
<path fill="none" stroke="black" d="M105.74,-3518.87C111.22,-3475.83 118.1,-3410.45 118.1,-3353.34 118.1,-3353.34 118.1,-3353.34 118.1,-980.94 118.1,-928.06 164.15,-885.37 203.24,-858.65"/>
<polygon fill="black" stroke="black" points="204.56,-861.31 210.97,-852.87 200.7,-855.48 204.56,-861.31"/>
<text text-anchor="middle" x="120.1" y="-2140.67" font-family="Times New Roman,serif" font-size="14.00">t</text>
</g>
<!-- 9 -->
<g id="node22" class="node">
<title>9</title>
<ellipse fill="none" stroke="black" cx="436.1" cy="-2670.59" rx="43.59" ry="43.59"/>
<text text-anchor="middle" x="436.1" y="-2666.89" font-family="Times New Roman,serif" font-size="14.00">9: [8, 26]</text>
</g>
<!-- 8&#45;&gt;9 -->
<g id="edge22" class="edge">
<title>8&#45;&gt;9</title>
<path fill="none" stroke="black" d="M436.1,-2764.62C436.1,-2752.09 436.1,-2738.24 436.1,-2725.15"/>
<polygon fill="black" stroke="black" points="439.6,-2725.37 436.1,-2715.37 432.6,-2725.37 439.6,-2725.37"/>
<text text-anchor="middle" x="439.6" y="-2735.94" font-family="Times New Roman,serif" font-size="14.00">s</text>
</g>
<!-- 27 -->
<g id="node34" class="node">
<title>27</title>
<ellipse fill="none" stroke="black" cx="257.1" cy="-981.94" rx="51.99" ry="51.99"/>
<text text-anchor="middle" x="257.1" y="-978.24" font-family="Times New Roman,serif" font-size="14.00">27: [19, 26]</text>
</g>
<!-- 26&#45;&gt;27 -->
<g id="edge40" class="edge">
<title>26&#45;&gt;27</title>
<path fill="none" stroke="black" d="M150.9,-3738.39C155.82,-3694.44 162.1,-3626.91 162.1,-3568.08 162.1,-3568.08 162.1,-3568.08 162.1,-1135.93 162.1,-1094.38 187.69,-1054.75 212.31,-1026.23"/>
<polygon fill="black" stroke="black" points="214.5,-1028.91 218.55,-1019.12 209.28,-1024.25 214.5,-1028.91"/>
<text text-anchor="middle" x="164.1" y="-2295.66" font-family="Times New Roman,serif" font-size="14.00">i</text>
</g>
<!-- 11 -->
<g id="node23" class="node">
<title>11</title>
<ellipse fill="none" stroke="black" cx="440.1" cy="-2376.86" rx="51.99" ry="51.99"/>
<text text-anchor="middle" x="440.1" y="-2373.16" font-family="Times New Roman,serif" font-size="14.00">11: [10, 26]</text>
</g>
<!-- 10&#45;&gt;11 -->
<g id="edge24" class="edge">
<title>10&#45;&gt;11</title>
<path fill="none" stroke="black" d="M437.37,-2479.36C437.71,-2466.85 438.08,-2453.16 438.43,-2440"/>
<polygon fill="black" stroke="black" points="441.95,-2440.2 438.72,-2430.11 434.95,-2440.01 441.95,-2440.2"/>
<text text-anchor="middle" x="444.6" y="-2450.65" font-family="Times New Roman,serif" font-size="14.00">m</text>
</g>
<!-- 16 -->
<g id="node27" class="node">
<title>16</title>
<ellipse fill="none" stroke="black" cx="322.1" cy="-1911.88" rx="51.99" ry="51.99"/>
<text text-anchor="middle" x="322.1" y="-1908.18" font-family="Times New Roman,serif" font-size="14.00">16: [13, 26]</text>
</g>
<!-- 15&#45;&gt;16 -->
<g id="edge29" class="edge">
<title>15&#45;&gt;16</title>
<path fill="none" stroke="black" d="M322.1,-2014.51C322.1,-2001.82 322.1,-1988.11 322.1,-1974.97"/>
<polygon fill="black" stroke="black" points="325.6,-1975.12 322.1,-1965.12 318.6,-1975.12 325.6,-1975.12"/>
<text text-anchor="middle" x="326.1" y="-1985.68" font-family="Times New Roman,serif" font-size="14.00">o</text>
</g>
<!-- 19 -->
<g id="node29" class="node">
<title>19</title>
<ellipse fill="none" stroke="black" cx="425.1" cy="-1601.9" rx="51.99" ry="51.99"/>
<text text-anchor="middle" x="425.1" y="-1598.2" font-family="Times New Roman,serif" font-size="14.00">19: [15, 26]</text>
</g>
<!-- 18&#45;&gt;19 -->
<g id="edge32" class="edge">
<title>18&#45;&gt;19</title>
<path fill="none" stroke="black" d="M434.43,-1704.95C433.27,-1692.18 432,-1678.34 430.79,-1665.1"/>
<polygon fill="black" stroke="black" points="434.18,-1664.79 429.78,-1655.15 427.21,-1665.42 434.18,-1664.79"/>
<text text-anchor="middle" x="437.1" y="-1675.7" font-family="Times New Roman,serif" font-size="14.00">o</text>
</g>
<!-- 33 -->
<g id="node37" class="node">
<title>33</title>
<ellipse fill="none" stroke="black" cx="620.1" cy="-361.98" rx="51.99" ry="51.99"/>
<text text-anchor="middle" x="620.1" y="-358.28" font-family="Times New Roman,serif" font-size="14.00">33: [23, 26]</text>
</g>
<!-- 32&#45;&gt;33 -->
<g id="edge46" class="edge">
<title>32&#45;&gt;33</title>
<path fill="none" stroke="black" d="M620.1,-464.6C620.1,-451.92 620.1,-438.2 620.1,-425.07"/>
<polygon fill="black" stroke="black" points="623.6,-425.21 620.1,-415.21 616.6,-425.21 623.6,-425.21"/>
<text text-anchor="middle" x="625.6" y="-435.77" font-family="Times New Roman,serif" font-size="14.00">m</text>
</g>
<!-- 3 -->
<g id="node17" class="node">
<title>3</title>
<ellipse fill="none" stroke="black" cx="381.1" cy="-3896" rx="43.59" ry="43.59"/>
<text text-anchor="middle" x="381.1" y="-3892.3" font-family="Times New Roman,serif" font-size="14.00">3: [2, 26]</text>
</g>
<!-- 2&#45;&gt;3 -->
<g id="edge16" class="edge">
<title>2&#45;&gt;3</title>
<path fill="none" stroke="black" d="M382.7,-4071.36C382.38,-4036.69 381.93,-3987.71 381.59,-3950.49"/>
<polygon fill="black" stroke="black" points="385.08,-3950.81 381.49,-3940.84 378.08,-3950.87 385.08,-3950.81"/>
<text text-anchor="middle" x="385.6" y="-4001.94" font-family="Times New Roman,serif" font-size="14.00">r</text>
</g>
<!-- 4 -->
<g id="node18" class="node">
<title>4</title>
<ellipse fill="none" stroke="black" cx="378.1" cy="-3676.72" rx="43.59" ry="43.59"/>
<text text-anchor="middle" x="378.1" y="-3673.02" font-family="Times New Roman,serif" font-size="14.00">4: [3, 26]</text>
</g>
<!-- 3&#45;&gt;4 -->
<g id="edge17" class="edge">
<title>3&#45;&gt;4</title>
<path fill="none" stroke="black" d="M380.5,-3852.07C380.02,-3817.4 379.35,-3768.43 378.83,-3731.21"/>
<polygon fill="black" stroke="black" points="382.33,-3731.51 378.69,-3721.56 375.33,-3731.6 382.33,-3731.51"/>
<text text-anchor="middle" x="384.6" y="-3782.66" font-family="Times New Roman,serif" font-size="14.00">e</text>
</g>
<!-- 5 -->
<g id="node19" class="node">
<title>5</title>
<ellipse fill="none" stroke="black" cx="382.1" cy="-3457.43" rx="43.59" ry="43.59"/>
<text text-anchor="middle" x="382.1" y="-3453.73" font-family="Times New Roman,serif" font-size="14.00">5: [4, 26]</text>
</g>
<!-- 4&#45;&gt;5 -->
<g id="edge18" class="edge">
<title>4&#45;&gt;5</title>
<path fill="none" stroke="black" d="M378.89,-3632.79C379.52,-3598.12 380.43,-3549.15 381.11,-3511.93"/>
<polygon fill="black" stroke="black" points="384.62,-3512.34 381.31,-3502.27 377.62,-3512.21 384.62,-3512.34"/>
<text text-anchor="middle" x="386.6" y="-3563.38" font-family="Times New Roman,serif" font-size="14.00">m</text>
</g>
<!-- 6 -->
<g id="node20" class="node">
<title>6</title>
<ellipse fill="none" stroke="black" cx="383.1" cy="-3247.25" rx="43.59" ry="43.59"/>
<text text-anchor="middle" x="383.1" y="-3243.55" font-family="Times New Roman,serif" font-size="14.00">6: [5, 26]</text>
</g>
<!-- 5&#45;&gt;6 -->
<g id="edge19" class="edge">
<title>5&#45;&gt;6</title>
<path fill="none" stroke="black" d="M382.3,-3413.55C382.46,-3381.22 382.67,-3336.68 382.84,-3301.97"/>
<polygon fill="black" stroke="black" points="386.34,-3302.09 382.89,-3292.08 379.34,-3302.06 386.34,-3302.09"/>
<text text-anchor="middle" x="385.1" y="-3348.64" font-family="Times New Roman,serif" font-size="14.00"> </text>
</g>
<!-- 7 -->
<g id="node21" class="node">
<title>7</title>
<ellipse fill="none" stroke="black" cx="384.1" cy="-3027.97" rx="43.59" ry="43.59"/>
<text text-anchor="middle" x="384.1" y="-3024.27" font-family="Times New Roman,serif" font-size="14.00">7: [6, 26]</text>
</g>
<!-- 6&#45;&gt;7 -->
<g id="edge20" class="edge">
<title>6&#45;&gt;7</title>
<path fill="none" stroke="black" d="M383.29,-3203.32C383.45,-3168.65 383.68,-3119.68 383.85,-3082.46"/>
<polygon fill="black" stroke="black" points="387.35,-3082.82 383.9,-3072.81 380.35,-3082.79 387.35,-3082.82"/>
<text text-anchor="middle" x="386.1" y="-3133.91" font-family="Times New Roman,serif" font-size="14.00">i</text>
</g>
<!-- 7&#45;&gt;8 -->
<g id="edge21" class="edge">
<title>7&#45;&gt;8</title>
<path fill="none" stroke="black" d="M394.12,-2985.07C402.54,-2949.9 414.6,-2899.5 423.64,-2861.74"/>
<polygon fill="black" stroke="black" points="427.18,-2862.99 426.1,-2852.45 420.37,-2861.36 427.18,-2862.99"/>
<text text-anchor="middle" x="425.1" y="-2914.62" font-family="Times New Roman,serif" font-size="14.00">p</text>
</g>
<!-- 9&#45;&gt;10 -->
<g id="edge23" class="edge">
<title>9&#45;&gt;10</title>
<path fill="none" stroke="black" d="M436.1,-2626.63C436.1,-2614.26 436.1,-2600.55 436.1,-2587.41"/>
<polygon fill="black" stroke="black" points="439.6,-2587.55 436.1,-2577.55 432.6,-2587.55 439.6,-2587.55"/>
<text text-anchor="middle" x="439.6" y="-2597.84" font-family="Times New Roman,serif" font-size="14.00">u</text>
</g>
<!-- 13 -->
<g id="node24" class="node">
<title>13</title>
<ellipse fill="none" stroke="black" cx="440.1" cy="-2221.87" rx="51.99" ry="51.99"/>
<text text-anchor="middle" x="440.1" y="-2218.17" font-family="Times New Roman,serif" font-size="14.00">13: [11, 26]</text>
</g>
<!-- 11&#45;&gt;13 -->
<g id="edge25" class="edge">
<title>11&#45;&gt;13</title>
<path fill="none" stroke="black" d="M440.1,-2324.49C440.1,-2311.81 440.1,-2298.09 440.1,-2284.96"/>
<polygon fill="black" stroke="black" points="443.6,-2285.1 440.1,-2275.1 436.6,-2285.1 443.6,-2285.1"/>
<text text-anchor="middle" x="442.1" y="-2295.66" font-family="Times New Roman,serif" font-size="14.00"> </text>
</g>
<!-- 13&#45;&gt;15 -->
<g id="edge27" class="edge">
<title>13&#45;&gt;15</title>
<path fill="none" stroke="black" d="M408.78,-2180.27C393.85,-2160.9 375.85,-2137.57 360.13,-2117.19"/>
<polygon fill="black" stroke="black" points="362.43,-2115.44 353.55,-2109.66 356.89,-2119.72 362.43,-2115.44"/>
<text text-anchor="middle" x="389.1" y="-2140.67" font-family="Times New Roman,serif" font-size="14.00">d</text>
</g>
<!-- 12 -->
<g id="node25" class="node">
<title>12</title>
<ellipse fill="none" stroke="black" cx="322.1" cy="-2376.86" rx="48.19" ry="48.19"/>
<text text-anchor="middle" x="322.1" y="-2373.16" font-family="Times New Roman,serif" font-size="14.00">12: [4, 21]</text>
</g>
<!-- 12&#45;&gt;13 -->
<g id="edge26" class="edge">
<title>12&#45;&gt;13</title>
<path fill="none" stroke="black" d="M351.26,-2338.04C366.56,-2318.21 385.49,-2293.67 401.93,-2272.34"/>
<polygon fill="black" stroke="black" points="405.24,-2274.79 408.57,-2264.73 399.7,-2270.52 405.24,-2274.79"/>
<text text-anchor="middle" x="387.1" y="-2295.66" font-family="Times New Roman,serif" font-size="14.00"> </text>
</g>
<!-- 14 -->
<g id="node26" class="node">
<title>14</title>
<ellipse fill="none" stroke="black" cx="322.1" cy="-2221.87" rx="48.19" ry="48.19"/>
<text text-anchor="middle" x="322.1" y="-2218.17" font-family="Times New Roman,serif" font-size="14.00">14: [5, 20]</text>
</g>
<!-- 14&#45;&gt;15 -->
<g id="edge28" class="edge">
<title>14&#45;&gt;15</title>
<path fill="none" stroke="black" d="M322.1,-2173.3C322.1,-2159.6 322.1,-2144.45 322.1,-2130"/>
<polygon fill="black" stroke="black" points="325.6,-2130.13 322.1,-2120.13 318.6,-2130.13 325.6,-2130.13"/>
<text text-anchor="middle" x="326.1" y="-2140.67" font-family="Times New Roman,serif" font-size="14.00">d</text>
</g>
<!-- 16&#45;&gt;18 -->
<g id="edge30" class="edge">
<title>16&#45;&gt;18</title>
<path fill="none" stroke="black" d="M353.45,-1869.89C368.2,-1850.6 385.9,-1827.45 401.38,-1807.21"/>
<polygon fill="black" stroke="black" points="404.56,-1809.81 407.86,-1799.74 399,-1805.56 404.56,-1809.81"/>
<text text-anchor="middle" x="387.1" y="-1830.69" font-family="Times New Roman,serif" font-size="14.00">l</text>
</g>
<!-- 17 -->
<g id="node28" class="node">
<title>17</title>
<ellipse fill="none" stroke="black" cx="440.1" cy="-1911.88" rx="48.19" ry="48.19"/>
<text text-anchor="middle" x="440.1" y="-1908.18" font-family="Times New Roman,serif" font-size="14.00">17: [1, 24]</text>
</g>
<!-- 17&#45;&gt;18 -->
<g id="edge31" class="edge">
<title>17&#45;&gt;18</title>
<path fill="none" stroke="black" d="M439.78,-1863.32C439.7,-1849.62 439.6,-1834.46 439.5,-1820.02"/>
<polygon fill="black" stroke="black" points="443,-1820.13 439.43,-1810.15 436,-1820.17 443,-1820.13"/>
<text text-anchor="middle" x="442.1" y="-1830.69" font-family="Times New Roman,serif" font-size="14.00">l</text>
</g>
<!-- 19&#45;&gt;21 -->
<g id="edge33" class="edge">
<title>19&#45;&gt;21</title>
<path fill="none" stroke="black" d="M419.1,-1549.96C417.58,-1537 415.92,-1522.93 414.34,-1509.5"/>
<polygon fill="black" stroke="black" points="417.74,-1509.42 413.09,-1499.89 410.79,-1510.23 417.74,-1509.42"/>
<text text-anchor="middle" x="419.6" y="-1520.71" font-family="Times New Roman,serif" font-size="14.00">r</text>
</g>
<!-- 21&#45;&gt;23 -->
<g id="edge35" class="edge">
<title>21&#45;&gt;23</title>
<path fill="none" stroke="black" d="M407.1,-1394.54C407.1,-1381.86 407.1,-1368.14 407.1,-1355.01"/>
<polygon fill="black" stroke="black" points="410.6,-1355.16 407.1,-1345.16 403.6,-1355.16 410.6,-1355.16"/>
<text text-anchor="middle" x="409.1" y="-1365.72" font-family="Times New Roman,serif" font-size="14.00"> </text>
</g>
<!-- 25 -->
<g id="node32" class="node">
<title>25</title>
<ellipse fill="none" stroke="black" cx="260.1" cy="-1136.93" rx="51.99" ry="51.99"/>
<text text-anchor="middle" x="260.1" y="-1133.23" font-family="Times New Roman,serif" font-size="14.00">25: [18, 26]</text>
</g>
<!-- 23&#45;&gt;25 -->
<g id="edge37" class="edge">
<title>23&#45;&gt;25</title>
<path fill="none" stroke="black" d="M371.51,-1253.89C350.99,-1232.53 325.04,-1205.52 303.34,-1182.94"/>
<polygon fill="black" stroke="black" points="306.31,-1180.94 296.86,-1176.15 301.27,-1185.79 306.31,-1180.94"/>
<text text-anchor="middle" x="341.6" y="-1210.73" font-family="Times New Roman,serif" font-size="14.00">s</text>
</g>
<!-- 25&#45;&gt;27 -->
<g id="edge39" class="edge">
<title>25&#45;&gt;27</title>
<path fill="none" stroke="black" d="M259.09,-1084.56C258.84,-1071.88 258.57,-1058.16 258.31,-1045.03"/>
<polygon fill="black" stroke="black" points="261.8,-1045.1 258.1,-1035.17 254.8,-1045.24 261.8,-1045.1"/>
<text text-anchor="middle" x="261.1" y="-1055.74" font-family="Times New Roman,serif" font-size="14.00">i</text>
</g>
<!-- 24 -->
<g id="node33" class="node">
<title>24</title>
<ellipse fill="none" stroke="black" cx="260.1" cy="-1291.92" rx="48.19" ry="48.19"/>
<text text-anchor="middle" x="260.1" y="-1288.22" font-family="Times New Roman,serif" font-size="14.00">24: [5, 14]</text>
</g>
<!-- 24&#45;&gt;25 -->
<g id="edge38" class="edge">
<title>24&#45;&gt;25</title>
<path fill="none" stroke="black" d="M260.1,-1243.35C260.1,-1229.65 260.1,-1214.5 260.1,-1200.06"/>
<polygon fill="black" stroke="black" points="263.6,-1200.19 260.1,-1190.19 256.6,-1200.19 263.6,-1200.19"/>
<text text-anchor="middle" x="263.6" y="-1210.73" font-family="Times New Roman,serif" font-size="14.00">s</text>
</g>
<!-- 27&#45;&gt;29 -->
<g id="edge41" class="edge">
<title>27&#45;&gt;29</title>
<path fill="none" stroke="black" d="M257.1,-929.57C257.1,-916.89 257.1,-903.17 257.1,-890.04"/>
<polygon fill="black" stroke="black" points="260.6,-890.18 257.1,-880.18 253.6,-890.18 260.6,-890.18"/>
<text text-anchor="middle" x="259.1" y="-900.74" font-family="Times New Roman,serif" font-size="14.00">t</text>
</g>
<!-- 30 -->
<g id="node36" class="node">
<title>30</title>
<ellipse fill="none" stroke="black" cx="375.1" cy="-671.96" rx="51.99" ry="51.99"/>
<text text-anchor="middle" x="375.1" y="-668.26" font-family="Times New Roman,serif" font-size="14.00">30: [21, 26]</text>
</g>
<!-- 29&#45;&gt;30 -->
<g id="edge43" class="edge">
<title>29&#45;&gt;30</title>
<path fill="none" stroke="black" d="M288.41,-785.35C303.34,-765.99 321.34,-742.65 337.06,-722.28"/>
<polygon fill="black" stroke="black" points="340.3,-724.8 343.64,-714.75 334.76,-720.53 340.3,-724.8"/>
<text text-anchor="middle" x="322.1" y="-745.75" font-family="Times New Roman,serif" font-size="14.00"> </text>
</g>
<!-- 30&#45;&gt;32 -->
<g id="edge44" class="edge">
<title>30&#45;&gt;32</title>
<path fill="none" stroke="black" d="M418.9,-643.61C460.4,-617.69 522.81,-578.72 567.1,-551.06"/>
<polygon fill="black" stroke="black" points="568.63,-553.61 575.26,-545.34 564.93,-547.67 568.63,-553.61"/>
<text text-anchor="middle" x="508.6" y="-590.76" font-family="Times New Roman,serif" font-size="14.00">a</text>
</g>
<!-- 33&#45;&gt;35 -->
<g id="edge47" class="edge">
<title>33&#45;&gt;35</title>
<path fill="none" stroke="black" d="M620.1,-309.61C620.1,-296.93 620.1,-283.21 620.1,-270.08"/>
<polygon fill="black" stroke="black" points="623.6,-270.22 620.1,-260.22 616.6,-270.22 623.6,-270.22"/>
<text text-anchor="middle" x="623.6" y="-280.78" font-family="Times New Roman,serif" font-size="14.00">e</text>
</g>
<!-- 35&#45;&gt;37 -->
<g id="edge49" class="edge">
<title>35&#45;&gt;37</title>
<path fill="none" stroke="black" d="M569.98,-191.87C469.87,-163.66 245.51,-100.45 137.48,-70.01"/>
<polygon fill="black" stroke="black" points="138.66,-66.42 128.09,-67.08 136.76,-73.16 138.66,-66.42"/>
<text text-anchor="middle" x="367.1" y="-125.79" font-family="Times New Roman,serif" font-size="14.00">t</text>
</g>
</g>
</svg>
