<?xml version="1.0" encoding="UTF-8" standalone="no"?>
<!DOCTYPE svg PUBLIC "-//W3C//DTD SVG 1.1//EN"
 "http://www.w3.org/Graphics/SVG/1.1/DTD/svg11.dtd">
<!-- Generated by graphviz version 8.0.2 (20230410.1723)
 -->
<!-- Pages: 1 -->
<svg width="1249pt" height="5565pt"
 viewBox="0.00 0.00 1249.34 5564.62" xmlns="http://www.w3.org/2000/svg" xmlns:xlink="http://www.w3.org/1999/xlink">
<g id="graph0" class="graph" transform="scale(1 1) rotate(0) translate(4 5560.62)">
<polygon fill="white" stroke="none" points="-4,4 -4,-5560.62 1245.34,-5560.62 1245.34,4 -4,4"/>
<!-- n0_0 -->
<!-- n0_26 -->
<g id="node2" class="node">
<title>n0_26</title>
<ellipse fill="none" stroke="black" cx="692.29" cy="-5342.49" rx="111.28" ry="111.28"/>
<text text-anchor="middle" x="692.29" y="-5338.79" font-family="Times New Roman,serif" font-size="14.00">Lorem ipsum dolor sit amet</text>
</g>
<!-- n0_0&#45;&gt;n0_26 -->
<g id="edge1" class="edge">
<title>n0_0&#45;&gt;n0_26</title>
<path fill="none" stroke="black" d="M550.9,-5510.06C566.25,-5491.98 590.22,-5463.74 614.09,-5435.61"/>
<polygon fill="black" stroke="black" points="620.48,-5428.08 617.44,-5438.62 617.25,-5431.9 614.01,-5435.71 614.01,-5435.71 614.01,-5435.71 617.25,-5431.9 610.58,-5432.8 620.48,-5428.08 620.48,-5428.08"/>
<text text-anchor="middle" x="585.79" y="-5475.43" font-family="Times New Roman,serif" font-size="14.00">L</text>
</g>
<!-- n7_26 -->
<g id="node9" class="node">
<title>n7_26</title>
<ellipse fill="none" stroke="black" cx="687.29" cy="-2765.64" rx="83.39" ry="83.39"/>
<text text-anchor="middle" x="687.29" y="-2761.94" font-family="Times New Roman,serif" font-size="14.00">psum dolor sit amet</text>
</g>
<!-- n0_0&#45;&gt;n7_26 -->
<g id="edge8" class="edge">
<title>n0_0&#45;&gt;n7_26</title>
<path fill="none" stroke="black" d="M535.04,-5504.46C539.41,-5356 561.29,-4579.16 561.29,-3944.9 561.29,-3944.9 561.29,-3944.9 561.29,-3139.26 561.29,-3034.6 606.46,-2921.69 642.71,-2847.93"/>
<polygon fill="black" stroke="black" points="647.08,-2839.14 646.66,-2850.09 644.86,-2843.61 642.63,-2848.09 642.63,-2848.09 642.63,-2848.09 644.86,-2843.61 638.6,-2846.09 647.08,-2839.14 647.08,-2839.14"/>
<text text-anchor="middle" x="565.29" y="-4119.38" font-family="Times New Roman,serif" font-size="14.00">p</text>
</g>
<!-- n9_26 -->
<g id="node11" class="node">
<title>n9_26</title>
<ellipse fill="none" stroke="black" cx="798.29" cy="-2350.37" rx="74.19" ry="74.19"/>
<text text-anchor="middle" x="798.29" y="-2346.67" font-family="Times New Roman,serif" font-size="14.00">um dolor sit amet</text>
</g>
<!-- n0_0&#45;&gt;n9_26 -->
<g id="edge10" class="edge">
<title>n0_0&#45;&gt;n9_26</title>
<path fill="none" stroke="black" d="M560.17,-5526.48C623.05,-5518.26 781,-5493.94 812.29,-5453.63 850.59,-5404.28 821.29,-4953.99 821.29,-4891.52 821.29,-4891.52 821.29,-4891.52 821.29,-2552.46 821.29,-2513.1 816.89,-2469.7 811.94,-2433.32"/>
<polygon fill="black" stroke="black" points="810.6,-2423.74 816.44,-2433.02 811.29,-2428.69 811.99,-2433.65 811.99,-2433.65 811.99,-2433.65 811.29,-2428.69 807.53,-2434.27 810.6,-2423.74 810.6,-2423.74"/>
<text text-anchor="middle" x="824.79" y="-3764.91" font-family="Times New Roman,serif" font-size="14.00">u</text>
</g>
<!-- n12_26 -->
<g id="node16" class="node">
<title>n12_26</title>
<ellipse fill="none" stroke="black" cx="674.29" cy="-1772.96" rx="60.39" ry="60.39"/>
<text text-anchor="middle" x="674.29" y="-1769.26" font-family="Times New Roman,serif" font-size="14.00">dolor sit amet</text>
</g>
<!-- n0_0&#45;&gt;n12_26 -->
<g id="edge11" class="edge">
<title>n0_0&#45;&gt;n12_26</title>
<path fill="none" stroke="black" d="M530.12,-5504.72C524.53,-5469.09 515.29,-5401.47 515.29,-5343.49 515.29,-5343.49 515.29,-5343.49 515.29,-1951 515.29,-1889.74 568.63,-1840.05 613.52,-1809.08"/>
<polygon fill="black" stroke="black" points="621.79,-1803.52 616.01,-1812.84 617.64,-1806.31 613.49,-1809.1 613.49,-1809.1 613.49,-1809.1 617.64,-1806.31 610.98,-1805.37 621.79,-1803.52 621.79,-1803.52"/>
<text text-anchor="middle" x="519.29" y="-3306" font-family="Times New Roman,serif" font-size="14.00">d</text>
</g>
<!-- n14_26 -->
<g id="node19" class="node">
<title>n14_26</title>
<ellipse fill="none" stroke="black" cx="604.29" cy="-1353.14" rx="50.89" ry="50.89"/>
<text text-anchor="middle" x="604.29" y="-1349.44" font-family="Times New Roman,serif" font-size="14.00">lor sit amet</text>
</g>
<!-- n0_0&#45;&gt;n14_26 -->
<g id="edge12" class="edge">
<title>n0_0&#45;&gt;n14_26</title>
<path fill="none" stroke="black" d="M522.62,-5507.09C505.95,-5472.75 477.29,-5404.83 477.29,-5343.49 477.29,-5343.49 477.29,-5343.49 477.29,-2044.09 477.29,-1972.32 483.21,-1953.86 501.29,-1884.4 527.98,-1781.96 563.11,-1765.03 585.29,-1661.51 603.42,-1576.9 606.22,-1476.42 605.83,-1413.96"/>
<polygon fill="black" stroke="black" points="605.74,-1404.27 610.33,-1414.22 605.79,-1409.26 605.83,-1414.26 605.83,-1414.26 605.83,-1414.26 605.79,-1409.26 601.33,-1414.31 605.74,-1404.27 605.74,-1404.27"/>
<text text-anchor="middle" x="479.29" y="-2948.28" font-family="Times New Roman,serif" font-size="14.00">l</text>
</g>
<!-- n1_24 -->
<g id="node21" class="node">
<title>n1_24</title>
<ellipse fill="none" stroke="black" cx="935.29" cy="-5113.9" rx="99.38" ry="99.38"/>
<text text-anchor="middle" x="935.29" y="-5110.2" font-family="Times New Roman,serif" font-size="14.00">orem ipsum dolor sit am</text>
</g>
<!-- n0_0&#45;&gt;n1_24 -->
<g id="edge2" class="edge">
<title>n0_0&#45;&gt;n1_24</title>
<path fill="none" stroke="black" d="M560.49,-5529.65C627.65,-5529.18 803.66,-5524.29 845.29,-5486.63 917.88,-5420.96 936.72,-5307.67 939.63,-5223.37"/>
<polygon fill="black" stroke="black" points="939.91,-5213.49 944.13,-5223.61 939.77,-5218.49 939.63,-5223.49 939.63,-5223.49 939.63,-5223.49 939.77,-5218.49 935.13,-5223.36 939.91,-5213.49 939.91,-5213.49"/>
<text text-anchor="middle" x="860.29" y="-5475.43" font-family="Times New Roman,serif" font-size="14.00">o</text>
</g>
<!-- n2_24 -->
<g id="node23" class="node">
<title>n2_24</title>
<ellipse fill="none" stroke="black" cx="367.29" cy="-4671.69" rx="94.78" ry="94.78"/>
<text text-anchor="middle" x="367.29" y="-4667.99" font-family="Times New Roman,serif" font-size="14.00">rem ipsum dolor sit am</text>
</g>
<!-- n0_0&#45;&gt;n2_24 -->
<g id="edge3" class="edge">
<title>n0_0&#45;&gt;n2_24</title>
<path fill="none" stroke="black" d="M509.63,-5521.04C493.81,-5514.21 474.25,-5503.05 463.29,-5486.63 455.06,-5474.29 460.26,-5468.33 458.29,-5453.63 425.81,-5211.2 394.22,-4925.54 378.18,-4775.94"/>
<polygon fill="black" stroke="black" points="377.15,-4766.28 382.69,-4775.75 377.68,-4771.26 378.21,-4776.23 378.21,-4776.23 378.21,-4776.23 377.68,-4771.26 373.74,-4776.71 377.15,-4766.28 377.15,-4766.28"/>
<text text-anchor="middle" x="460.79" y="-5338.79" font-family="Times New Roman,serif" font-size="14.00">r</text>
</g>
<!-- n8_18 -->
<g id="node27" class="node">
<title>n8_18</title>
<ellipse fill="none" stroke="black" cx="284.29" cy="-4289.27" rx="50.09" ry="50.09"/>
<text text-anchor="middle" x="284.29" y="-4285.57" font-family="Times New Roman,serif" font-size="14.00">sum dolor </text>
</g>
<!-- n0_0&#45;&gt;n8_18 -->
<g id="edge9" class="edge">
<title>n0_0&#45;&gt;n8_18</title>
<path fill="none" stroke="black" d="M508.48,-5525.11C439.72,-5511.44 257.29,-5463.86 257.29,-5343.49 257.29,-5343.49 257.29,-5343.49 257.29,-4670.69 257.29,-4556.63 269.52,-4423.82 277.52,-4349.14"/>
<polygon fill="black" stroke="black" points="278.57,-4339.44 281.97,-4349.86 278.03,-4344.41 277.49,-4349.38 277.49,-4349.38 277.49,-4349.38 278.03,-4344.41 273.02,-4348.89 278.57,-4339.44 278.57,-4339.44"/>
<text text-anchor="middle" x="260.79" y="-5110.2" font-family="Times New Roman,serif" font-size="14.00">s</text>
</g>
<!-- n6_20 -->
<g id="node29" class="node">
<title>n6_20</title>
<ellipse fill="none" stroke="black" cx="225.29" cy="-3943.9" rx="63.09" ry="63.09"/>
<text text-anchor="middle" x="225.29" y="-3940.2" font-family="Times New Roman,serif" font-size="14.00">ipsum dolor si</text>
</g>
<!-- n0_0&#45;&gt;n6_20 -->
<g id="edge7" class="edge">
<title>n0_0&#45;&gt;n6_20</title>
<path fill="none" stroke="black" d="M508.22,-5525.99C445.58,-5516.75 289.19,-5490.45 253.29,-5453.63 217.53,-5416.94 219.29,-5394.72 219.29,-5343.49 219.29,-5343.49 219.29,-5343.49 219.29,-4288.27 219.29,-4194.65 221.55,-4086.69 223.3,-4017.2"/>
<polygon fill="black" stroke="black" points="223.55,-4007.24 227.79,-4017.35 223.42,-4012.24 223.3,-4017.23 223.3,-4017.23 223.3,-4017.23 223.42,-4012.24 218.8,-4017.12 223.55,-4007.24 223.55,-4007.24"/>
<text text-anchor="middle" x="221.29" y="-4886.82" font-family="Times New Roman,serif" font-size="14.00">i</text>
</g>
<!-- n5_11 -->
<g id="node32" class="node">
<title>n5_11</title>
<ellipse fill="none" stroke="black" cx="1009.29" cy="-3621.27" rx="35.19" ry="35.19"/>
<text text-anchor="middle" x="1009.29" y="-3617.57" font-family="Times New Roman,serif" font-size="14.00"> ipsum</text>
</g>
<!-- n0_0&#45;&gt;n5_11 -->
<g id="edge6" class="edge">
<title>n0_0&#45;&gt;n5_11</title>
<path fill="none" stroke="black" d="M560.68,-5529.85C618.24,-5529.58 758.66,-5524.7 868.29,-5486.63 965.18,-5452.98 1049.29,-5446.05 1049.29,-5343.49 1049.29,-5343.49 1049.29,-5343.49 1049.29,-3942.9 1049.29,-3843 1029.94,-3726.93 1018.15,-3665.53"/>
<polygon fill="black" stroke="black" points="1016.26,-3655.8 1022.59,-3664.76 1017.22,-3660.71 1018.17,-3665.62 1018.17,-3665.62 1018.17,-3665.62 1017.22,-3660.71 1013.75,-3666.48 1016.26,-3655.8 1016.26,-3655.8"/>
<text text-anchor="middle" x="1051.29" y="-4667.99" font-family="Times New Roman,serif" font-size="14.00"> </text>
</g>
<!-- n22_26 -->
<g id="node33" class="node">
<title>n22_26</title>
<ellipse fill="none" stroke="black" cx="261.29" cy="-301.04" rx="27.9" ry="27.9"/>
<text text-anchor="middle" x="261.29" y="-297.34" font-family="Times New Roman,serif" font-size="14.00">amet</text>
</g>
<!-- n0_0&#45;&gt;n22_26 -->
<g id="edge14" class="edge">
<title>n0_0&#45;&gt;n22_26</title>
<path fill="none" stroke="black" d="M508,-5529.18C420.89,-5526.17 147.29,-5503.97 147.29,-5343.49 147.29,-5343.49 147.29,-5343.49 147.29,-409.54 147.29,-365.34 193.22,-333.94 226.77,-316.9"/>
<polygon fill="black" stroke="black" points="235.43,-312.68 228.41,-321.11 230.93,-314.87 226.44,-317.06 226.44,-317.06 226.44,-317.06 230.93,-314.87 224.47,-313.02 235.43,-312.68 235.43,-312.68"/>
<text text-anchor="middle" x="150.79" y="-2041.39" font-family="Times New Roman,serif" font-size="14.00">a</text>
</g>
<!-- n4_18 -->
<g id="node35" class="node">
<title>n4_18</title>
<ellipse fill="none" stroke="black" cx="66.29" cy="-3309.7" rx="66.09" ry="66.09"/>
<text text-anchor="middle" x="66.29" y="-3306" font-family="Times New Roman,serif" font-size="14.00">m ipsum dolor </text>
</g>
<!-- n0_0&#45;&gt;n4_18 -->
<g id="edge5" class="edge">
<title>n0_0&#45;&gt;n4_18</title>
<path fill="none" stroke="black" d="M508.1,-5528.46C423.65,-5524.47 162.38,-5510.31 133.29,-5486.63 81.48,-5444.44 87.29,-5410.31 87.29,-5343.49 87.29,-5343.49 87.29,-5343.49 87.29,-3620.27 87.29,-3539.99 80.18,-3448.27 74.23,-3385.64"/>
<polygon fill="black" stroke="black" points="73.29,-3375.84 78.72,-3385.36 73.77,-3380.82 74.25,-3385.79 74.25,-3385.79 74.25,-3385.79 73.77,-3380.82 69.77,-3386.22 73.29,-3375.84 73.29,-3375.84"/>
<text text-anchor="middle" x="92.79" y="-4454.36" font-family="Times New Roman,serif" font-size="14.00">m</text>
</g>
<!-- n3_23 -->
<g id="node37" class="node">
<title>n3_23</title>
<ellipse fill="none" stroke="black" cx="1083.29" cy="-2951.98" rx="85.29" ry="85.29"/>
<text text-anchor="middle" x="1083.29" y="-2948.28" font-family="Times New Roman,serif" font-size="14.00">em ipsum dolor sit a</text>
</g>
<!-- n0_0&#45;&gt;n3_23 -->
<g id="edge4" class="edge">
<title>n0_0&#45;&gt;n3_23</title>
<path fill="none" stroke="black" d="M560.69,-5528.81C651.55,-5525.51 949.82,-5510.48 1023.29,-5453.63 1068.07,-5418.98 1087.29,-5400.1 1087.29,-5343.49 1087.29,-5343.49 1087.29,-5343.49 1087.29,-3308.7 1087.29,-3220.07 1086.04,-3119.03 1084.93,-3047.34"/>
<polygon fill="black" stroke="black" points="1084.78,-3037.43 1089.43,-3047.35 1084.86,-3042.42 1084.93,-3047.42 1084.93,-3047.42 1084.93,-3047.42 1084.86,-3042.42 1080.43,-3047.49 1084.78,-3037.43 1084.78,-3037.43"/>
<text text-anchor="middle" x="1090.79" y="-4285.57" font-family="Times New Roman,serif" font-size="14.00">e</text>
</g>
<!-- n20_6 -->
<g id="node39" class="node">
<title>n20_6</title>
<ellipse fill="none" stroke="black" cx="1178.29" cy="-5342.49" rx="63.09" ry="63.09"/>
<text text-anchor="middle" x="1178.29" y="-5338.79" font-family="Times New Roman,serif" font-size="14.00">ipsum dolor si</text>
</g>
<!-- n0_0&#45;&gt;n20_6 -->
<g id="edge13" class="edge">
<title>n0_0&#45;&gt;n20_6</title>
<path fill="none" stroke="black" d="M560.63,-5529.1C666.23,-5526.8 1055.57,-5516.36 1101.29,-5486.63 1127.66,-5469.49 1145.66,-5440.14 1157.58,-5412.47"/>
<polygon fill="black" stroke="black" points="1161.25,-5403.56 1161.61,-5414.52 1159.34,-5408.19 1157.44,-5412.81 1157.44,-5412.81 1157.44,-5412.81 1159.34,-5408.19 1153.28,-5411.1 1161.25,-5403.56 1161.25,-5403.56"/>
<text text-anchor="middle" x="1119.29" y="-5475.43" font-family="Times New Roman,serif" font-size="14.00">t</text>
</g>
<!-- n1_26 -->
<g id="node3" class="node">
<title>n1_26</title>
<ellipse fill="none" stroke="black" cx="687.29" cy="-4890.52" rx="105.88" ry="105.88"/>
<text text-anchor="middle" x="687.29" y="-4886.82" font-family="Times New Roman,serif" font-size="14.00">orem ipsum dolor sit amet</text>
</g>
<!-- n0_26&#45;&gt;n1_26 -->
<g id="edge15" class="edge">
<title>n0_26&#45;&gt;n1_26</title>
<path fill="none" stroke="black" d="M691.06,-5230.84C690.31,-5162.62 689.34,-5075.29 688.57,-5006.32"/>
<polygon fill="black" stroke="black" points="688.46,-4996.71 693.07,-5006.66 688.52,-5001.71 688.57,-5006.71 688.57,-5006.71 688.57,-5006.71 688.52,-5001.71 684.07,-5006.76 688.46,-4996.71 688.46,-4996.71"/>
<text text-anchor="middle" x="695.29" y="-5110.2" font-family="Times New Roman,serif" font-size="14.00">o</text>
</g>
<!-- n2_26 -->
<g id="node4" class="node">
<title>n2_26</title>
<ellipse fill="none" stroke="black" cx="687.29" cy="-4458.06" rx="100.98" ry="100.98"/>
<text text-anchor="middle" x="687.29" y="-4454.36" font-family="Times New Roman,serif" font-size="14.00">rem ipsum dolor sit amet</text>
</g>
<!-- n1_26&#45;&gt;n2_26 -->
<g id="edge16" class="edge">
<title>n1_26&#45;&gt;n2_26</title>
<path fill="none" stroke="black" d="M687.29,-4784.22C687.29,-4718.86 687.29,-4635.02 687.29,-4568.84"/>
<polygon fill="black" stroke="black" points="687.29,-4559.21 691.79,-4569.21 687.29,-4564.21 687.29,-4569.21 687.29,-4569.21 687.29,-4569.21 687.29,-4564.21 682.79,-4569.21 687.29,-4559.21 687.29,-4559.21"/>
<text text-anchor="middle" x="689.79" y="-4667.99" font-family="Times New Roman,serif" font-size="14.00">r</text>
</g>
<!-- n3_26 -->
<g id="node5" class="node">
<title>n3_26</title>
<ellipse fill="none" stroke="black" cx="687.29" cy="-4123.08" rx="98.28" ry="98.28"/>
<text text-anchor="middle" x="687.29" y="-4119.38" font-family="Times New Roman,serif" font-size="14.00">em ipsum dolor sit amet</text>
</g>
<!-- n2_26&#45;&gt;n3_26 -->
<g id="edge17" class="edge">
<title>n2_26&#45;&gt;n3_26</title>
<path fill="none" stroke="black" d="M687.29,-4356.7C687.29,-4317.17 687.29,-4271.69 687.29,-4231.49"/>
<polygon fill="black" stroke="black" points="687.29,-4221.66 691.79,-4231.66 687.29,-4226.66 687.29,-4231.66 687.29,-4231.66 687.29,-4231.66 687.29,-4226.66 682.79,-4231.66 687.29,-4221.66 687.29,-4221.66"/>
<text text-anchor="middle" x="690.79" y="-4285.57" font-family="Times New Roman,serif" font-size="14.00">e</text>
</g>
<!-- n4_26 -->
<g id="node6" class="node">
<title>n4_26</title>
<ellipse fill="none" stroke="black" cx="687.29" cy="-3768.61" rx="94.48" ry="94.48"/>
<text text-anchor="middle" x="687.29" y="-3764.91" font-family="Times New Roman,serif" font-size="14.00">m ipsum dolor sit amet</text>
</g>
<!-- n3_26&#45;&gt;n4_26 -->
<g id="edge18" class="edge">
<title>n3_26&#45;&gt;n4_26</title>
<path fill="none" stroke="black" d="M687.29,-4024.37C687.29,-3977.39 687.29,-3921.04 687.29,-3873.3"/>
<polygon fill="black" stroke="black" points="687.29,-3863.57 691.79,-3873.57 687.29,-3868.57 687.29,-3873.57 687.29,-3873.57 687.29,-3873.57 687.29,-3868.57 682.79,-3873.57 687.29,-3863.57 687.29,-3863.57"/>
<text text-anchor="middle" x="692.79" y="-3940.2" font-family="Times New Roman,serif" font-size="14.00">m</text>
</g>
<!-- n5_26 -->
<g id="node7" class="node">
<title>n5_26</title>
<ellipse fill="none" stroke="black" cx="687.29" cy="-3481.09" rx="87.18" ry="87.18"/>
<text text-anchor="middle" x="687.29" y="-3477.39" font-family="Times New Roman,serif" font-size="14.00"> ipsum dolor sit amet</text>
</g>
<!-- n4_26&#45;&gt;n5_26 -->
<g id="edge19" class="edge">
<title>n4_26&#45;&gt;n5_26</title>
<path fill="none" stroke="black" d="M687.29,-3673.73C687.29,-3643.07 687.29,-3609 687.29,-3578.19"/>
<polygon fill="black" stroke="black" points="687.29,-3568.3 691.79,-3578.3 687.29,-3573.3 687.29,-3578.3 687.29,-3578.3 687.29,-3578.3 687.29,-3573.3 682.79,-3578.3 687.29,-3568.3 687.29,-3568.3"/>
<text text-anchor="middle" x="689.29" y="-3617.57" font-family="Times New Roman,serif" font-size="14.00"> </text>
</g>
<!-- n6_26 -->
<g id="node8" class="node">
<title>n6_26</title>
<ellipse fill="none" stroke="black" cx="687.29" cy="-3140.26" rx="85.29" ry="85.29"/>
<text text-anchor="middle" x="687.29" y="-3136.56" font-family="Times New Roman,serif" font-size="14.00">ipsum dolor sit amet</text>
</g>
<!-- n5_26&#45;&gt;n6_26 -->
<g id="edge20" class="edge">
<title>n5_26&#45;&gt;n6_26</title>
<path fill="none" stroke="black" d="M687.29,-3393.71C687.29,-3345.46 687.29,-3285.27 687.29,-3235.77"/>
<polygon fill="black" stroke="black" points="687.29,-3226.01 691.79,-3236.01 687.29,-3231.01 687.29,-3236.01 687.29,-3236.01 687.29,-3236.01 687.29,-3231.01 682.79,-3236.01 687.29,-3226.01 687.29,-3226.01"/>
<text text-anchor="middle" x="689.29" y="-3306" font-family="Times New Roman,serif" font-size="14.00">i</text>
</g>
<!-- n6_26&#45;&gt;n7_26 -->
<g id="edge21" class="edge">
<title>n6_26&#45;&gt;n7_26</title>
<path fill="none" stroke="black" d="M687.29,-3054.71C687.29,-2996.43 687.29,-2919 687.29,-2859.09"/>
<polygon fill="black" stroke="black" points="687.29,-2849.26 691.79,-2859.26 687.29,-2854.26 687.29,-2859.26 687.29,-2859.26 687.29,-2859.26 687.29,-2854.26 682.79,-2859.26 687.29,-2849.26 687.29,-2849.26"/>
<text text-anchor="middle" x="691.29" y="-2948.28" font-family="Times New Roman,serif" font-size="14.00">p</text>
</g>
<!-- n8_26 -->
<g id="node10" class="node">
<title>n8_26</title>
<ellipse fill="none" stroke="black" cx="701.29" cy="-2553.46" rx="77.99" ry="77.99"/>
<text text-anchor="middle" x="701.29" y="-2549.76" font-family="Times New Roman,serif" font-size="14.00">sum dolor sit amet</text>
</g>
<!-- n7_26&#45;&gt;n8_26 -->
<g id="edge22" class="edge">
<title>n7_26&#45;&gt;n8_26</title>
<path fill="none" stroke="black" d="M692.79,-2682.17C693.68,-2668.76 694.61,-2654.82 695.51,-2641.3"/>
<polygon fill="black" stroke="black" points="696.16,-2631.54 699.99,-2641.82 695.83,-2636.53 695.49,-2641.52 695.49,-2641.52 695.49,-2641.52 695.83,-2636.53 691,-2641.22 696.16,-2631.54 696.16,-2631.54"/>
<text text-anchor="middle" x="698.79" y="-2653.25" font-family="Times New Roman,serif" font-size="14.00">s</text>
</g>
<!-- n8_26&#45;&gt;n9_26 -->
<g id="edge23" class="edge">
<title>n8_26&#45;&gt;n9_26</title>
<path fill="none" stroke="black" d="M734.95,-2482.69C743.69,-2464.56 753.15,-2444.95 762.03,-2426.55"/>
<polygon fill="black" stroke="black" points="766.33,-2417.63 766.04,-2428.59 764.16,-2422.13 761.99,-2426.64 761.99,-2426.64 761.99,-2426.64 764.16,-2422.13 757.93,-2424.68 766.33,-2417.63 766.33,-2417.63"/>
<text text-anchor="middle" x="756.79" y="-2446.26" font-family="Times New Roman,serif" font-size="14.00">u</text>
</g>
<!-- n10_26 -->
<g id="node12" class="node">
<title>n10_26</title>
<ellipse fill="none" stroke="black" cx="798.29" cy="-2147.93" rx="69.59" ry="69.59"/>
<text text-anchor="middle" x="798.29" y="-2144.23" font-family="Times New Roman,serif" font-size="14.00">m dolor sit amet</text>
</g>
<!-- n9_26&#45;&gt;n10_26 -->
<g id="edge24" class="edge">
<title>n9_26&#45;&gt;n10_26</title>
<path fill="none" stroke="black" d="M798.29,-2275.87C798.29,-2260.14 798.29,-2243.47 798.29,-2227.55"/>
<polygon fill="black" stroke="black" points="798.29,-2217.76 802.79,-2227.76 798.29,-2222.76 798.29,-2227.76 798.29,-2227.76 798.29,-2227.76 798.29,-2222.76 793.79,-2227.76 798.29,-2217.76 798.29,-2217.76"/>
<text text-anchor="middle" x="803.79" y="-2247.08" font-family="Times New Roman,serif" font-size="14.00">m</text>
</g>
<!-- n11_26 -->
<g id="node14" class="node">
<title>n11_26</title>
<ellipse fill="none" stroke="black" cx="638.29" cy="-1952" rx="63.09" ry="63.09"/>
<text text-anchor="middle" x="638.29" y="-1948.3" font-family="Times New Roman,serif" font-size="14.00"> dolor sit amet</text>
</g>
<!-- n10_26&#45;&gt;n11_26 -->
<g id="edge25" class="edge">
<title>n10_26&#45;&gt;n11_26</title>
<path fill="none" stroke="black" d="M754.36,-2093.68C732.54,-2067.24 706.2,-2035.31 684.13,-2008.55"/>
<polygon fill="black" stroke="black" points="678.03,-2001.16 687.86,-2006.01 681.21,-2005.01 684.39,-2008.87 684.39,-2008.87 684.39,-2008.87 681.21,-2005.01 680.92,-2011.73 678.03,-2001.16 678.03,-2001.16"/>
<text text-anchor="middle" x="720.29" y="-2041.39" font-family="Times New Roman,serif" font-size="14.00"> </text>
</g>
<!-- n4_22 -->
<g id="node13" class="node">
<title>n4_22</title>
<ellipse fill="none" stroke="black" cx="633.29" cy="-2147.93" rx="77.19" ry="77.19"/>
<text text-anchor="middle" x="633.29" y="-2144.23" font-family="Times New Roman,serif" font-size="14.00">m ipsum dolor sit </text>
</g>
<!-- n4_22&#45;&gt;n11_26 -->
<g id="edge26" class="edge">
<title>n4_22&#45;&gt;n11_26</title>
<path fill="none" stroke="black" d="M635.27,-2070.28C635.66,-2055.35 636.06,-2039.73 636.44,-2024.95"/>
<polygon fill="black" stroke="black" points="636.69,-2015.38 640.93,-2025.49 636.56,-2020.38 636.43,-2025.37 636.43,-2025.37 636.43,-2025.37 636.56,-2020.38 631.93,-2025.26 636.69,-2015.38 636.69,-2015.38"/>
<text text-anchor="middle" x="638.29" y="-2041.39" font-family="Times New Roman,serif" font-size="14.00"> </text>
</g>
<!-- n11_26&#45;&gt;n12_26 -->
<g id="edge27" class="edge">
<title>n11_26&#45;&gt;n12_26</title>
<path fill="none" stroke="black" d="M650.68,-1890.07C653.82,-1874.66 657.2,-1858.02 660.4,-1842.27"/>
<polygon fill="black" stroke="black" points="662.37,-1832.61 664.79,-1843.3 661.37,-1837.51 660.38,-1842.41 660.38,-1842.41 660.38,-1842.41 661.37,-1837.51 655.97,-1841.51 662.37,-1832.61 662.37,-1832.61"/>
<text text-anchor="middle" x="663.29" y="-1855.2" font-family="Times New Roman,serif" font-size="14.00">d</text>
</g>
<!-- n5_21 -->
<g id="node15" class="node">
<title>n5_21</title>
<ellipse fill="none" stroke="black" cx="787.29" cy="-1952" rx="67.69" ry="67.69"/>
<text text-anchor="middle" x="787.29" y="-1948.3" font-family="Times New Roman,serif" font-size="14.00"> ipsum dolor sit</text>
</g>
<!-- n5_21&#45;&gt;n12_26 -->
<g id="edge28" class="edge">
<title>n5_21&#45;&gt;n12_26</title>
<path fill="none" stroke="black" d="M751.23,-1894.49C738.68,-1874.84 724.58,-1852.75 711.91,-1832.9"/>
<polygon fill="black" stroke="black" points="706.58,-1824.54 715.75,-1830.55 709.27,-1828.75 711.96,-1832.97 711.96,-1832.97 711.96,-1832.97 709.27,-1828.75 708.17,-1835.39 706.58,-1824.54 706.58,-1824.54"/>
<text text-anchor="middle" x="735.29" y="-1855.2" font-family="Times New Roman,serif" font-size="14.00">d</text>
</g>
<!-- n13_26 -->
<g id="node17" class="node">
<title>n13_26</title>
<ellipse fill="none" stroke="black" cx="688.29" cy="-1558.17" rx="55.79" ry="55.79"/>
<text text-anchor="middle" x="688.29" y="-1554.47" font-family="Times New Roman,serif" font-size="14.00">olor sit amet</text>
</g>
<!-- n12_26&#45;&gt;n13_26 -->
<g id="edge29" class="edge">
<title>n12_26&#45;&gt;n13_26</title>
<path fill="none" stroke="black" d="M678.21,-1712.4C680.02,-1684.91 682.17,-1652.2 684.02,-1624.07"/>
<polygon fill="black" stroke="black" points="684.66,-1614.33 688.5,-1624.61 684.34,-1619.32 684.01,-1624.31 684.01,-1624.31 684.01,-1624.31 684.34,-1619.32 679.52,-1624.02 684.66,-1614.33 684.66,-1614.33"/>
<text text-anchor="middle" x="684.29" y="-1683.31" font-family="Times New Roman,serif" font-size="14.00">o</text>
</g>
<!-- n13_26&#45;&gt;n14_26 -->
<g id="edge30" class="edge">
<title>n13_26&#45;&gt;n14_26</title>
<path fill="none" stroke="black" d="M667.21,-1506.2C655.05,-1476.82 639.76,-1439.85 627.29,-1409.73"/>
<polygon fill="black" stroke="black" points="623.52,-1400.61 631.5,-1408.13 625.43,-1405.23 627.34,-1409.85 627.34,-1409.85 627.34,-1409.85 625.43,-1405.23 623.19,-1411.57 623.52,-1400.61 623.52,-1400.61"/>
<text text-anchor="middle" x="639.29" y="-1425.63" font-family="Times New Roman,serif" font-size="14.00">l</text>
</g>
<!-- n1_25 -->
<g id="node18" class="node">
<title>n1_25</title>
<ellipse fill="none" stroke="black" cx="473.29" cy="-1558.17" rx="103.18" ry="103.18"/>
<text text-anchor="middle" x="473.29" y="-1554.47" font-family="Times New Roman,serif" font-size="14.00">orem ipsum dolor sit ame</text>
</g>
<!-- n1_25&#45;&gt;n14_26 -->
<g id="edge31" class="edge">
<title>n1_25&#45;&gt;n14_26</title>
<path fill="none" stroke="black" d="M529.04,-1470.77C543.54,-1448.3 558.7,-1424.81 571.57,-1404.85"/>
<polygon fill="black" stroke="black" points="576.94,-1396.52 575.3,-1407.37 574.23,-1400.73 571.52,-1404.93 571.52,-1404.93 571.52,-1404.93 574.23,-1400.73 567.74,-1402.49 576.94,-1396.52 576.94,-1396.52"/>
<text text-anchor="middle" x="560.29" y="-1425.63" font-family="Times New Roman,serif" font-size="14.00">l</text>
</g>
<!-- n15_26 -->
<g id="node20" class="node">
<title>n15_26</title>
<ellipse fill="none" stroke="black" cx="604.29" cy="-1202.69" rx="48.99" ry="48.99"/>
<text text-anchor="middle" x="604.29" y="-1198.99" font-family="Times New Roman,serif" font-size="14.00">or sit amet</text>
</g>
<!-- n14_26&#45;&gt;n15_26 -->
<g id="edge32" class="edge">
<title>n14_26&#45;&gt;n15_26</title>
<path fill="none" stroke="black" d="M604.29,-1301.88C604.29,-1289.08 604.29,-1275.21 604.29,-1262.04"/>
<polygon fill="black" stroke="black" points="604.29,-1252.14 608.79,-1262.14 604.29,-1257.14 604.29,-1262.14 604.29,-1262.14 604.29,-1262.14 604.29,-1257.14 599.79,-1262.14 604.29,-1252.14 604.29,-1252.14"/>
<text text-anchor="middle" x="608.29" y="-1273.24" font-family="Times New Roman,serif" font-size="14.00">o</text>
</g>
<!-- n16_26 -->
<g id="node22" class="node">
<title>n16_26</title>
<ellipse fill="none" stroke="black" cx="604.29" cy="-1058.75" rx="44.39" ry="44.39"/>
<text text-anchor="middle" x="604.29" y="-1055.05" font-family="Times New Roman,serif" font-size="14.00">r sit amet</text>
</g>
<!-- n15_26&#45;&gt;n16_26 -->
<g id="edge33" class="edge">
<title>n15_26&#45;&gt;n16_26</title>
<path fill="none" stroke="black" d="M604.29,-1153.24C604.29,-1140.32 604.29,-1126.28 604.29,-1113.1"/>
<polygon fill="black" stroke="black" points="604.29,-1103.23 608.79,-1113.23 604.29,-1108.23 604.29,-1113.23 604.29,-1113.23 604.29,-1113.23 604.29,-1108.23 599.79,-1113.23 604.29,-1103.23 604.29,-1103.23"/>
<text text-anchor="middle" x="606.79" y="-1124.75" font-family="Times New Roman,serif" font-size="14.00">r</text>
</g>
<!-- n1_24&#45;&gt;n16_26 -->
<g id="edge34" class="edge">
<title>n1_24&#45;&gt;n16_26</title>
<path fill="none" stroke="black" d="M925.46,-5014.67C917.39,-4925.53 907.29,-4790.43 907.29,-4672.69 907.29,-4672.69 907.29,-4672.69 907.29,-1201.69 907.29,-1093.18 745.96,-1067.45 658.74,-1061.47"/>
<polygon fill="black" stroke="black" points="649,-1060.87 659.26,-1057 653.99,-1061.18 658.98,-1061.49 658.98,-1061.49 658.98,-1061.49 653.99,-1061.18 658.7,-1065.98 649,-1060.87 649,-1060.87"/>
<text text-anchor="middle" x="909.79" y="-2549.76" font-family="Times New Roman,serif" font-size="14.00">r</text>
</g>
<!-- n17_26 -->
<g id="node24" class="node">
<title>n17_26</title>
<ellipse fill="none" stroke="black" cx="372.29" cy="-909.61" rx="40.89" ry="40.89"/>
<text text-anchor="middle" x="372.29" y="-905.91" font-family="Times New Roman,serif" font-size="14.00"> sit amet</text>
</g>
<!-- n16_26&#45;&gt;n17_26 -->
<g id="edge35" class="edge">
<title>n16_26&#45;&gt;n17_26</title>
<path fill="none" stroke="black" d="M563.34,-1041.31C524.88,-1024.81 466.76,-997.07 422.29,-963.56 416.33,-959.06 410.46,-953.82 404.95,-948.42"/>
<polygon fill="black" stroke="black" points="398.19,-941.54 408.41,-945.52 401.69,-945.11 405.2,-948.68 405.2,-948.68 405.2,-948.68 401.69,-945.11 401.99,-951.83 398.19,-941.54 398.19,-941.54"/>
<text text-anchor="middle" x="471.29" y="-985.36" font-family="Times New Roman,serif" font-size="14.00"> </text>
</g>
<!-- n2_24&#45;&gt;n17_26 -->
<g id="edge36" class="edge">
<title>n2_24&#45;&gt;n17_26</title>
<path fill="none" stroke="black" d="M360.39,-4576.95C355.31,-4499.98 349.29,-4388.13 349.29,-4290.27 349.29,-4290.27 349.29,-4290.27 349.29,-2448.96 349.29,-2053.49 342.29,-1954.65 342.29,-1559.17 342.29,-1559.17 342.29,-1559.17 342.29,-1057.75 342.29,-1024.02 349.96,-986.81 357.54,-958.24"/>
<polygon fill="black" stroke="black" points="360.09,-948.9 361.79,-959.74 358.77,-953.73 357.45,-958.55 357.45,-958.55 357.45,-958.55 358.77,-953.73 353.11,-957.36 360.09,-948.9 360.09,-948.9"/>
<text text-anchor="middle" x="351.29" y="-2346.67" font-family="Times New Roman,serif" font-size="14.00"> </text>
</g>
<!-- n18_26 -->
<g id="node26" class="node">
<title>n18_26</title>
<ellipse fill="none" stroke="black" cx="372.29" cy="-766.32" rx="38.19" ry="38.19"/>
<text text-anchor="middle" x="372.29" y="-762.62" font-family="Times New Roman,serif" font-size="14.00">sit amet</text>
</g>
<!-- n17_26&#45;&gt;n18_26 -->
<g id="edge37" class="edge">
<title>n17_26&#45;&gt;n18_26</title>
<path fill="none" stroke="black" d="M372.29,-868.5C372.29,-851.57 372.29,-831.73 372.29,-814.14"/>
<polygon fill="black" stroke="black" points="372.29,-804.62 376.79,-814.62 372.29,-809.62 372.29,-814.62 372.29,-814.62 372.29,-814.62 372.29,-809.62 367.79,-814.62 372.29,-804.62 372.29,-804.62"/>
<text text-anchor="middle" x="375.79" y="-826.47" font-family="Times New Roman,serif" font-size="14.00">s</text>
</g>
<!-- n5_16 -->
<g id="node25" class="node">
<title>n5_16</title>
<ellipse fill="none" stroke="black" cx="485.29" cy="-909.61" rx="53.89" ry="53.89"/>
<text text-anchor="middle" x="485.29" y="-905.91" font-family="Times New Roman,serif" font-size="14.00"> ipsum dolo</text>
</g>
<!-- n5_16&#45;&gt;n18_26 -->
<g id="edge38" class="edge">
<title>n5_16&#45;&gt;n18_26</title>
<path fill="none" stroke="black" d="M452,-866.98C436.09,-847.09 417.22,-823.49 401.83,-804.25"/>
<polygon fill="black" stroke="black" points="395.68,-796.56 405.44,-801.56 398.81,-800.47 401.93,-804.37 401.93,-804.37 401.93,-804.37 398.81,-800.47 398.41,-807.18 395.68,-796.56 395.68,-796.56"/>
<text text-anchor="middle" x="429.79" y="-826.47" font-family="Times New Roman,serif" font-size="14.00">s</text>
</g>
<!-- n19_26 -->
<g id="node28" class="node">
<title>n19_26</title>
<ellipse fill="none" stroke="black" cx="303.29" cy="-642.53" rx="34.39" ry="34.39"/>
<text text-anchor="middle" x="303.29" y="-638.83" font-family="Times New Roman,serif" font-size="14.00">it amet</text>
</g>
<!-- n18_26&#45;&gt;n19_26 -->
<g id="edge39" class="edge">
<title>n18_26&#45;&gt;n19_26</title>
<path fill="none" stroke="black" d="M353.8,-732.68C344.83,-716.84 334,-697.72 324.67,-681.26"/>
<polygon fill="black" stroke="black" points="319.95,-672.92 328.79,-679.4 322.41,-677.27 324.88,-681.62 324.88,-681.62 324.88,-681.62 322.41,-677.27 320.96,-683.84 319.95,-672.92 319.95,-672.92"/>
<text text-anchor="middle" x="342.29" y="-698.77" font-family="Times New Roman,serif" font-size="14.00">i</text>
</g>
<!-- n8_18&#45;&gt;n19_26 -->
<g id="edge40" class="edge">
<title>n8_18&#45;&gt;n19_26</title>
<path fill="none" stroke="black" d="M288.72,-4239.13C294.34,-4172.52 303.29,-4049.83 303.29,-3944.9 303.29,-3944.9 303.29,-3944.9 303.29,-765.32 303.29,-739.44 303.29,-710.47 303.29,-687.28"/>
<polygon fill="black" stroke="black" points="303.29,-677.39 307.79,-687.39 303.29,-682.39 303.29,-687.39 303.29,-687.39 303.29,-687.39 303.29,-682.39 298.79,-687.39 303.29,-677.39 303.29,-677.39"/>
<text text-anchor="middle" x="305.29" y="-2041.39" font-family="Times New Roman,serif" font-size="14.00">i</text>
</g>
<!-- n20_26 -->
<g id="node30" class="node">
<title>n20_26</title>
<ellipse fill="none" stroke="black" cx="261.29" cy="-524.58" rx="32.49" ry="32.49"/>
<text text-anchor="middle" x="261.29" y="-520.88" font-family="Times New Roman,serif" font-size="14.00">t amet</text>
</g>
<!-- n19_26&#45;&gt;n20_26 -->
<g id="edge41" class="edge">
<title>n19_26&#45;&gt;n20_26</title>
<path fill="none" stroke="black" d="M291.82,-609.84C286.8,-595.98 280.85,-579.58 275.55,-564.95"/>
<polygon fill="black" stroke="black" points="272.18,-555.63 279.82,-563.5 273.88,-560.33 275.58,-565.03 275.58,-565.03 275.58,-565.03 273.88,-560.33 271.35,-566.56 272.18,-555.63 272.18,-555.63"/>
<text text-anchor="middle" x="286.29" y="-578.88" font-family="Times New Roman,serif" font-size="14.00">t</text>
</g>
<!-- n6_20&#45;&gt;n20_26 -->
<g id="edge42" class="edge">
<title>n6_20&#45;&gt;n20_26</title>
<path fill="none" stroke="black" d="M227.77,-3880.55C230.12,-3815.95 233.29,-3712.06 233.29,-3622.27 233.29,-3622.27 233.29,-3622.27 233.29,-641.53 233.29,-615.37 240.11,-586.8 247.02,-564.56"/>
<polygon fill="black" stroke="black" points="250.07,-555.14 251.27,-566.04 248.53,-559.9 246.99,-564.65 246.99,-564.65 246.99,-564.65 248.53,-559.9 242.71,-563.27 250.07,-555.14 250.07,-555.14"/>
<text text-anchor="middle" x="235.29" y="-1855.2" font-family="Times New Roman,serif" font-size="14.00">t</text>
</g>
<!-- n21_26 -->
<g id="node31" class="node">
<title>n21_26</title>
<ellipse fill="none" stroke="black" cx="261.29" cy="-410.54" rx="30.59" ry="30.59"/>
<text text-anchor="middle" x="261.29" y="-406.84" font-family="Times New Roman,serif" font-size="14.00"> amet</text>
</g>
<!-- n20_26&#45;&gt;n21_26 -->
<g id="edge43" class="edge">
<title>n20_26&#45;&gt;n21_26</title>
<path fill="none" stroke="black" d="M261.29,-491.77C261.29,-479.2 261.29,-464.6 261.29,-451.33"/>
<polygon fill="black" stroke="black" points="261.29,-441.5 265.79,-451.5 261.29,-446.5 261.29,-451.5 261.29,-451.5 261.29,-451.5 261.29,-446.5 256.79,-451.5 261.29,-441.5 261.29,-441.5"/>
<text text-anchor="middle" x="263.29" y="-462.89" font-family="Times New Roman,serif" font-size="14.00"> </text>
</g>
<!-- n21_26&#45;&gt;n22_26 -->
<g id="edge44" class="edge">
<title>n21_26&#45;&gt;n22_26</title>
<path fill="none" stroke="black" d="M261.29,-379.59C261.29,-367.02 261.29,-352.27 261.29,-339.03"/>
<polygon fill="black" stroke="black" points="261.29,-329.25 265.79,-339.25 261.29,-334.25 261.29,-339.25 261.29,-339.25 261.29,-339.25 261.29,-334.25 256.79,-339.25 261.29,-329.25 261.29,-329.25"/>
<text text-anchor="middle" x="264.79" y="-350.79" font-family="Times New Roman,serif" font-size="14.00">a</text>
</g>
<!-- n5_11&#45;&gt;n22_26 -->
<g id="edge45" class="edge">
<title>n5_11&#45;&gt;n22_26</title>
<path fill="none" stroke="black" d="M1003.98,-3586.01C995.6,-3529.03 980.29,-3411.1 980.29,-3310.7 980.29,-3310.7 980.29,-3310.7 980.29,-409.54 980.29,-339.98 447.19,-310.51 299.07,-303.66"/>
<polygon fill="black" stroke="black" points="289.48,-303.23 299.67,-299.19 294.47,-303.45 299.47,-303.68 299.47,-303.68 299.47,-303.68 294.47,-303.45 299.26,-308.18 289.48,-303.23 289.48,-303.23"/>
<text text-anchor="middle" x="983.79" y="-1554.47" font-family="Times New Roman,serif" font-size="14.00">a</text>
</g>
<!-- n23_26 -->
<g id="node34" class="node">
<title>n23_26</title>
<ellipse fill="none" stroke="black" cx="261.29" cy="-198.05" rx="24.1" ry="24.1"/>
<text text-anchor="middle" x="261.29" y="-194.35" font-family="Times New Roman,serif" font-size="14.00">met</text>
</g>
<!-- n22_26&#45;&gt;n23_26 -->
<g id="edge46" class="edge">
<title>n22_26&#45;&gt;n23_26</title>
<path fill="none" stroke="black" d="M261.29,-272.71C261.29,-260.36 261.29,-245.64 261.29,-232.62"/>
<polygon fill="black" stroke="black" points="261.29,-222.63 265.79,-232.63 261.29,-227.63 261.29,-232.63 261.29,-232.63 261.29,-232.63 261.29,-227.63 256.79,-232.63 261.29,-222.63 261.29,-222.63"/>
<text text-anchor="middle" x="266.79" y="-243.9" font-family="Times New Roman,serif" font-size="14.00">m</text>
</g>
<!-- n24_26 -->
<g id="node36" class="node">
<title>n24_26</title>
<ellipse fill="none" stroke="black" cx="261.29" cy="-105" rx="18" ry="18"/>
<text text-anchor="middle" x="261.29" y="-101.3" font-family="Times New Roman,serif" font-size="14.00">et</text>
</g>
<!-- n23_26&#45;&gt;n24_26 -->
<g id="edge47" class="edge">
<title>n23_26&#45;&gt;n24_26</title>
<path fill="none" stroke="black" d="M261.29,-173.6C261.29,-161.21 261.29,-145.94 261.29,-133.05"/>
<polygon fill="black" stroke="black" points="261.29,-123.33 265.79,-133.33 261.29,-128.33 261.29,-133.33 261.29,-133.33 261.29,-133.33 261.29,-128.33 256.79,-133.33 261.29,-123.33 261.29,-123.33"/>
<text text-anchor="middle" x="264.79" y="-144.8" font-family="Times New Roman,serif" font-size="14.00">e</text>
</g>
<!-- n4_18&#45;&gt;n24_26 -->
<g id="edge48" class="edge">
<title>n4_18&#45;&gt;n24_26</title>
<path fill="none" stroke="black" d="M72.75,-3243.54C79.24,-3172.26 88.29,-3054.61 88.29,-2952.98 88.29,-2952.98 88.29,-2952.98 88.29,-197.05 88.29,-132.25 184.51,-113.46 233.44,-108.1"/>
<polygon fill="black" stroke="black" points="243.11,-107.14 233.6,-112.6 238.13,-107.64 233.16,-108.13 233.16,-108.13 233.16,-108.13 238.13,-107.64 232.71,-103.65 243.11,-107.14 243.11,-107.14"/>
<text text-anchor="middle" x="91.79" y="-1273.24" font-family="Times New Roman,serif" font-size="14.00">e</text>
</g>
<!-- n25_26 -->
<g id="node38" class="node">
<title>n25_26</title>
<ellipse fill="none" stroke="black" cx="715.29" cy="-18" rx="18" ry="18"/>
<text text-anchor="middle" x="715.29" y="-14.3" font-family="Times New Roman,serif" font-size="14.00">t</text>
</g>
<!-- n24_26&#45;&gt;n25_26 -->
<g id="edge49" class="edge">
<title>n24_26&#45;&gt;n25_26</title>
<path fill="none" stroke="black" d="M279.09,-100.67C348.81,-87.61 603.64,-39.9 687.98,-24.11"/>
<polygon fill="black" stroke="black" points="697.62,-22.31 688.62,-28.57 692.71,-23.23 687.79,-24.15 687.79,-24.15 687.79,-24.15 692.71,-23.23 686.96,-19.73 697.62,-22.31 697.62,-22.31"/>
<text text-anchor="middle" x="518.29" y="-57.8" font-family="Times New Roman,serif" font-size="14.00">t</text>
</g>
<!-- n3_23&#45;&gt;n25_26 -->
<g id="edge50" class="edge">
<title>n3_23&#45;&gt;n25_26</title>
<path fill="none" stroke="black" d="M1068.43,-2867.6C1059.28,-2809.12 1049.29,-2729.01 1049.29,-2657.95 1049.29,-2657.95 1049.29,-2657.95 1049.29,-104 1049.29,-41.01 823.37,-24.14 743.14,-20.13"/>
<polygon fill="black" stroke="black" points="733.25,-19.67 743.45,-15.64 738.25,-19.9 743.24,-20.13 743.24,-20.13 743.24,-20.13 738.25,-19.9 743.03,-24.63 733.25,-19.67 733.25,-19.67"/>
<text text-anchor="middle" x="1051.29" y="-1124.75" font-family="Times New Roman,serif" font-size="14.00">t</text>
</g>
</g>
</svg>
